<?xml version="1.0" encoding="UTF-8"?>
<svg width="245px" height="47px" viewBox="0 0 245 47" version="1.1" xmlns="http://www.w3.org/2000/svg" xmlns:xlink="http://www.w3.org/1999/xlink">
    <title>apidocs_dark_horizontal@1x</title>
    <defs>
        <polygon id="path-1" points="0 0 36.284 0 36.284 46.3535 0 46.3535"></polygon>
        <polygon id="path-3" points="0 0 21.409 0 21.409 29.7741 0 29.7741"></polygon>
        <polygon id="path-5" points="0 46.354 244.112 46.354 244.112 0 0 0"></polygon>
    </defs>
    <g id="Page-1" stroke="none" stroke-width="1" fill="none" fill-rule="evenodd">
        <g id="artboard-copy" transform="translate(-1535.000000, -409.000000)">
            <g id="Group-49" transform="translate(1535.000000, 409.000000)">
                <g id="Group-3" transform="translate(0.000400, 0.000000)">
                    <mask id="mask-2" fill="white">
                        <use xlink:href="#path-1"></use>
                    </mask>
                    <g id="Clip-2"></g>
                    <path d="M30.319,-0.0005 L5.965,-0.0005 C2.676,-0.0005 0,2.6755 0,5.9645 L0,40.3885 C0,43.6775 2.676,46.3535 5.965,46.3535 L30.319,46.3535 C33.608,46.3535 36.284,43.6775 36.284,40.3885 L36.284,5.9645 C36.284,2.6755 33.608,-0.0005 30.319,-0.0005 L30.319,-0.0005 Z M30.319,3.1385 C31.88,3.1385 33.145,4.4045 33.145,5.9645 L33.145,40.3885 C33.145,41.9495 31.88,43.2145 30.319,43.2145 L5.965,43.2145 C4.404,43.2145 3.139,41.9495 3.139,40.3885 L3.139,5.9645 C3.139,4.4045 4.404,3.1385 5.965,3.1385 L30.319,3.1385 Z" id="Fill-1" fill="#009FFF" mask="url(#mask-2)"></path>
                </g>
                <path d="M31.6517812,44.8445 L5.52136688,44.8445 C3.84654289,44.8445 2.48898744,43.4869446 2.48898744,41.8121206 L2.48898744,4.87751145 C2.48898744,3.20268746 3.84654289,1.8445 5.52136688,1.8445 L31.6517812,1.8445 C33.3266052,1.8445 34.6841607,3.20268746 34.6841607,4.87751145 L34.6841607,41.8121206 C34.6841607,43.4869446 33.3266052,44.8445 31.6517812,44.8445" id="Fill-251" fill="#009FFF"></path>
                <line x1="11.1588" y1="30.3278" x2="21.0898" y2="30.3278" id="Fill-4" fill="#FFFFFF"></line>
                <path d="M21.0897,31.3404 L11.1587,31.3404 C10.5997,31.3404 10.1467,30.8874 10.1467,30.3284 C10.1467,29.7694 10.5997,29.3154 11.1587,29.3154 L21.0897,29.3154 C21.6487,29.3154 22.1017,29.7694 22.1017,30.3284 C22.1017,30.8874 21.6487,31.3404 21.0897,31.3404" id="Fill-6" fill="#FFFFFF"></path>
                <line x1="11.1588" y1="34.0759" x2="25.1268" y2="34.0759" id="Fill-8" fill="#FFFFFF"></line>
                <path d="M25.1263,35.0884 L11.1583,35.0884 C10.5993,35.0884 10.1463,34.6354 10.1463,34.0764 C10.1463,33.5174 10.5993,33.0634 11.1583,33.0634 L25.1263,33.0634 C25.6853,33.0634 26.1383,33.5174 26.1383,34.0764 C26.1383,34.6354 25.6853,35.0884 25.1263,35.0884" id="Fill-10" fill="#FFFFFF"></path>
                <line x1="11.1588" y1="37.8239" x2="19.3138" y2="37.8239" id="Fill-12" fill="#FFFFFF"></line>
                <path d="M19.3136,38.8363 L11.1586,38.8363 C10.5996,38.8363 10.1466,38.3833 10.1466,37.8243 C10.1466,37.2653 10.5996,36.8113 11.1586,36.8113 L19.3136,36.8113 C19.8726,36.8113 20.3256,37.2653 20.3256,37.8243 C20.3256,38.3833 19.8726,38.8363 19.3136,38.8363" id="Fill-14" fill="#FFFFFF"></path>
                <path d="M20.2151,7.0592 C20.2291,7.0692 20.2421,7.0822 20.2581,7.0892 C20.6421,7.2382 20.7801,7.4972 20.6761,7.8892 C20.2441,9.5212 19.8111,11.1532 19.3781,12.7842 C19.2461,13.2842 19.1121,13.7842 18.9801,14.2832 C18.9681,14.3282 18.9641,14.3752 18.9511,14.4492 L19.1701,14.4492 C20.8311,14.4492 22.4921,14.4522 24.1531,14.4462 C24.4371,14.4452 24.6561,14.5292 24.7831,14.7892 C24.9131,15.0572 24.8451,15.2882 24.6591,15.5122 C21.9961,18.7092 19.3361,21.9082 16.6751,25.1072 C16.4611,25.3642 16.1971,25.4212 15.9121,25.2782 C15.6381,25.1402 15.5191,24.8732 15.6031,24.5592 C16.1651,22.4272 16.7301,20.2952 17.2941,18.1632 C17.3091,18.1072 17.3201,18.0502 17.3401,17.9642 L17.1151,17.9642 C15.4541,17.9642 13.7931,17.9602 12.1321,17.9672 C11.8481,17.9682 11.6291,17.8832 11.5021,17.6232 C11.3711,17.3552 11.4411,17.1242 11.6271,16.9012 C14.2941,13.6992 16.9571,10.4942 19.6241,7.2942 C19.7041,7.1982 19.8271,7.1362 19.9291,7.0592 L20.2151,7.0592 Z" id="Fill-16" fill="#FFDC00"></path>
                <path d="M53.8085,25.691 C54.7065,25.691 55.5335,25.526 56.2865,25.195 C57.0395,24.865 57.6875,24.416 58.2295,23.847 C58.7705,23.279 59.1865,22.605 59.4785,21.825 C59.7685,21.046 59.9145,20.194 59.9145,19.268 C59.9145,18.343 59.7685,17.484 59.4785,16.691 C59.1865,15.898 58.7705,15.218 58.2295,14.649 C57.6875,14.081 57.0395,13.632 56.2865,13.301 C55.5335,12.971 54.7065,12.806 53.8085,12.806 C52.8835,12.806 52.0445,12.971 51.2905,13.301 C50.5375,13.632 49.8965,14.088 49.3675,14.669 C48.8395,15.251 48.4225,15.938 48.1195,16.731 C47.8145,17.524 47.6635,18.37 47.6635,19.268 C47.6635,20.22 47.8145,21.092 48.1195,21.885 C48.4225,22.678 48.8455,23.352 49.3875,23.907 C49.9295,24.462 50.5775,24.898 51.3305,25.215 C52.0835,25.532 52.9095,25.691 53.8085,25.691 L53.8085,25.691 Z M43.1835,2.101 C43.1835,1.387 43.3945,0.859 43.8175,0.515 C44.2405,0.172 44.8345,0 45.6015,0 C46.0775,0 46.5135,0.059 46.9095,0.178 C47.3065,0.297 47.5705,0.383 47.7025,0.436 L47.7025,11.815 C48.3635,10.969 49.2755,10.248 50.4385,9.654 C51.6015,9.059 52.9365,8.762 54.4425,8.762 C55.8965,8.762 57.2375,9.019 58.4665,9.535 C59.6965,10.05 60.7665,10.777 61.6785,11.715 C62.5905,12.654 63.3045,13.764 63.8195,15.046 C64.3345,16.328 64.5925,17.736 64.5925,19.268 C64.5925,20.775 64.3275,22.176 63.7995,23.471 C63.2705,24.766 62.5305,25.876 61.5795,26.801 C60.6275,27.727 59.4975,28.453 58.1895,28.982 C56.8815,29.51 55.4475,29.775 53.8875,29.775 C52.3275,29.775 50.8945,29.537 49.5865,29.061 C48.2775,28.585 47.1475,27.872 46.1965,26.92 C45.2445,25.968 44.5045,24.779 43.9765,23.352 C43.4465,21.924 43.1835,20.246 43.1835,18.317 L43.1835,2.101 Z" id="Fill-18" fill="#FFFFFF"></path>
                <path d="M68.24,16.4136 C68.24,13.9816 68.986,12.0986 70.48,10.7636 C71.973,9.4296 74.042,8.7616 76.685,8.7616 C78.35,8.7616 79.704,8.9936 80.749,9.4556 C81.792,9.9186 82.315,10.6256 82.315,11.5766 C82.315,12.0266 82.189,12.4626 81.938,12.8846 C81.687,13.3086 81.482,13.5726 81.324,13.6776 C80.874,13.4666 80.319,13.2686 79.658,13.0836 C78.997,12.8986 78.244,12.8056 77.398,12.8056 C74.306,12.8056 72.76,14.4446 72.76,17.7216 L72.76,29.2196 L68.24,29.2196 L68.24,16.4136 Z" id="Fill-20" fill="#FFFFFF"></path>
                <path d="M97.5785,20.3386 C97.3135,20.2856 96.8185,20.2066 96.0915,20.1006 C95.3645,19.9956 94.2745,19.9416 92.8205,19.9416 C91.0235,19.9416 89.7145,20.2136 88.8955,20.7546 C88.0765,21.2966 87.6665,22.1496 87.6665,23.3116 C87.6665,23.7876 87.7525,24.2236 87.9245,24.6206 C88.0955,25.0166 88.3935,25.3536 88.8165,25.6316 C89.2395,25.9086 89.8135,26.1206 90.5415,26.2656 C91.2675,26.4116 92.1725,26.4836 93.2575,26.4836 C94.4725,26.4836 95.4375,26.4376 96.1515,26.3446 C96.8645,26.2526 97.3405,26.1806 97.5785,26.1266 L97.5785,20.3386 Z M102.0585,29.1406 C101.7945,29.1936 101.3775,29.2526 100.8095,29.3186 C100.2415,29.3846 99.5735,29.4506 98.8075,29.5166 C98.0405,29.5826 97.1825,29.6416 96.2305,29.6956 C95.2785,29.7476 94.2875,29.7746 93.2575,29.7746 C91.1955,29.7746 89.5105,29.5966 88.2025,29.2396 C86.8935,28.8826 85.8625,28.4066 85.1095,27.8116 C84.3565,27.2176 83.8405,26.5306 83.5635,25.7506 C83.2855,24.9706 83.1465,24.1716 83.1465,23.3516 C83.1465,22.2686 83.3115,21.3166 83.6425,20.4966 C83.9725,19.6776 84.5145,18.9906 85.2685,18.4356 C86.0215,17.8806 87.0055,17.4646 88.2215,17.1866 C89.4375,16.9096 90.9175,16.7706 92.6625,16.7706 C93.6665,16.7706 94.6185,16.8036 95.5165,16.8696 C96.4155,16.9356 97.0895,16.9946 97.5385,17.0476 C97.5385,16.1226 97.3865,15.3566 97.0825,14.7486 C96.7785,14.1406 96.3625,13.6646 95.8345,13.3206 C95.3055,12.9776 94.6705,12.7396 93.9315,12.6076 C93.1905,12.4756 92.3715,12.4096 91.4725,12.4096 C89.9665,12.4096 88.7575,12.5816 87.8455,12.9246 C86.9335,13.2686 86.3315,13.5586 86.0415,13.7966 C85.8825,13.6646 85.6645,13.4136 85.3875,13.0436 C85.1095,12.6736 84.9705,12.2246 84.9705,11.6956 C84.9705,11.3256 85.0695,10.9616 85.2685,10.6056 C85.4665,10.2486 85.8165,9.9316 86.3185,9.6536 C86.8205,9.3766 87.4945,9.1576 88.3405,8.9996 C89.1865,8.8406 90.2565,8.7616 91.5525,8.7616 C93.1115,8.7616 94.5315,8.9136 95.8145,9.2176 C97.0955,9.5216 98.1995,10.0046 99.1245,10.6646 C100.0495,11.3256 100.7705,12.1976 101.2855,13.2816 C101.8005,14.3656 102.0585,15.6736 102.0585,17.2066 L102.0585,29.1406 Z" id="Fill-22" fill="#FFFFFF"></path>
                <path d="M106.6969,11.418 C106.6969,10.678 106.9079,10.143 107.3309,9.812 C107.7539,9.482 108.3479,9.317 109.1149,9.317 C109.5909,9.317 110.0269,9.376 110.4239,9.495 C110.8199,9.614 111.0839,9.7 111.2169,9.753 L111.2169,29.22 L106.6969,29.22 L106.6969,11.418 Z M108.9569,0.396 C109.7229,0.396 110.3709,0.661 110.8989,1.189 C111.4279,1.718 111.6929,2.365 111.6929,3.132 C111.6929,3.899 111.4279,4.546 110.8989,5.074 C110.3709,5.603 109.7229,5.867 108.9569,5.867 C108.1899,5.867 107.5429,5.603 107.0139,5.074 C106.4849,4.546 106.2209,3.899 106.2209,3.132 C106.2209,2.365 106.4849,1.718 107.0139,1.189 C107.5429,0.661 108.1899,0.396 108.9569,0.396 L108.9569,0.396 Z" id="Fill-24" fill="#FFFFFF"></path>
                <path d="M115.8552,17.2064 C115.8552,15.8854 116.0992,14.7024 116.5882,13.6584 C117.0772,12.6144 117.7512,11.7284 118.6112,11.0014 C119.4692,10.2744 120.4872,9.7194 121.6632,9.3364 C122.8392,8.9534 124.1282,8.7614 125.5292,8.7614 C126.9302,8.7614 128.2252,8.9534 129.4142,9.3364 C130.6042,9.7194 131.6282,10.2744 132.4872,11.0014 C133.3462,11.7284 134.0132,12.6144 134.4892,13.6584 C134.9652,14.7024 135.2032,15.8854 135.2032,17.2064 L135.2032,29.2194 L130.6832,29.2194 L130.6832,18.3564 C130.6832,16.5594 130.2472,15.1914 129.3752,14.2524 C128.5022,13.3144 127.2202,12.8454 125.5292,12.8454 C123.8102,12.8454 122.5222,13.3144 121.6632,14.2524 C120.8042,15.1914 120.3752,16.5594 120.3752,18.3564 L120.3752,29.2194 L115.8552,29.2194 L115.8552,17.2064 Z" id="Fill-26" fill="#FFFFFF"></path>
                <path d="M163.035,27.3957 C162.744,27.6077 162.341,27.8587 161.825,28.1487 C161.31,28.4407 160.662,28.7177 159.883,28.9817 C159.103,29.2457 158.184,29.4707 157.127,29.6557 C156.07,29.8407 154.867,29.9337 153.52,29.9337 C151.563,29.9337 149.714,29.6217 147.969,29.0017 C146.225,28.3807 144.684,27.4747 143.35,26.2857 C142.015,25.0957 140.958,23.6167 140.178,21.8447 C139.398,20.0747 139.009,18.0387 139.009,15.7397 C139.009,13.4667 139.386,11.4317 140.138,9.6337 C140.892,7.8367 141.923,6.3237 143.231,5.0937 C144.539,3.8647 146.066,2.9277 147.81,2.2797 C149.555,1.6317 151.418,1.3077 153.401,1.3077 C155.304,1.3077 156.863,1.4667 158.079,1.7837 C159.295,2.1007 160.253,2.4907 160.953,2.9537 C161.654,3.4157 162.143,3.8917 162.42,4.3807 C162.698,4.8697 162.837,5.2727 162.837,5.5897 C162.837,5.9337 162.764,6.2637 162.619,6.5807 C162.473,6.8977 162.302,7.1827 162.103,7.4337 C161.905,7.6847 161.7,7.9027 161.489,8.0877 C161.277,8.2727 161.092,8.4047 160.934,8.4837 C160.669,8.1937 160.305,7.8767 159.843,7.5327 C159.38,7.1897 158.832,6.8717 158.198,6.5807 C157.564,6.2907 156.85,6.0457 156.057,5.8477 C155.264,5.6497 154.405,5.5497 153.48,5.5497 C152.132,5.5497 150.876,5.7817 149.714,6.2437 C148.55,6.7067 147.546,7.3807 146.7,8.2657 C145.854,9.1517 145.187,10.2227 144.698,11.4777 C144.209,12.7327 143.965,14.1537 143.965,15.7397 C143.965,17.3517 144.222,18.7727 144.738,20.0017 C145.253,21.2307 145.96,22.2617 146.859,23.0937 C147.757,23.9267 148.814,24.5547 150.031,24.9777 C151.246,25.4007 152.554,25.6117 153.956,25.6117 C155.621,25.6117 157.054,25.4007 158.257,24.9777 C159.46,24.5547 160.339,24.1587 160.894,23.7877 L162.995,27.3957 L163.035,27.3957 Z" id="Fill-28" fill="#009FFF"></path>
                <path d="M165.9286,2.101 C165.9286,1.387 166.1396,0.859 166.5626,0.515 C166.9856,0.172 167.5796,0 168.3466,0 C168.8226,0 169.2586,0.059 169.6556,0.178 C170.0516,0.297 170.3156,0.383 170.4476,0.436 L170.4476,29.22 L165.9286,29.22 L165.9286,2.101 Z" id="Fill-30" fill="#009FFF"></path>
                <path d="M185.1969,25.7701 C186.0949,25.7701 186.9279,25.6051 187.6949,25.2741 C188.4609,24.9441 189.1149,24.4821 189.6569,23.8871 C190.1979,23.2921 190.6219,22.6051 190.9259,21.8251 C191.2289,21.0461 191.3819,20.1931 191.3819,19.2681 C191.3819,18.3431 191.2289,17.4781 190.9259,16.6711 C190.6219,15.8651 190.1979,15.1711 189.6569,14.5901 C189.1149,14.0081 188.4609,13.5531 187.6949,13.2221 C186.9279,12.8921 186.0949,12.7261 185.1969,12.7261 C184.2709,12.7261 183.4329,12.8921 182.6789,13.2221 C181.9259,13.5531 181.2779,14.0081 180.7359,14.5901 C180.1939,15.1711 179.7709,15.8651 179.4679,16.6711 C179.1639,17.4781 179.0119,18.3431 179.0119,19.2681 C179.0119,20.1931 179.1639,21.0461 179.4679,21.8251 C179.7709,22.6051 180.1939,23.2921 180.7359,23.8871 C181.2779,24.4821 181.9259,24.9441 182.6789,25.2741 C183.4329,25.6051 184.2709,25.7701 185.1969,25.7701 M185.1969,8.7621 C186.7289,8.7621 188.1629,9.0261 189.4989,9.5541 C190.8329,10.0831 191.9899,10.8171 192.9679,11.7551 C193.9449,12.6931 194.7119,13.8041 195.2669,15.0851 C195.8219,16.3681 196.0999,17.7611 196.0999,19.2681 C196.0999,20.7481 195.8219,22.1291 195.2669,23.4111 C194.7119,24.6931 193.9449,25.8041 192.9679,26.7411 C191.9899,27.6801 190.8329,28.4201 189.4989,28.9621 C188.1629,29.5031 186.7289,29.7741 185.1969,29.7741 C183.6629,29.7741 182.2289,29.5031 180.8949,28.9621 C179.5599,28.4201 178.4039,27.6801 177.4259,26.7411 C176.4479,25.8041 175.6819,24.6931 175.1259,23.4111 C174.5709,22.1291 174.2939,20.7481 174.2939,19.2681 C174.2939,17.7611 174.5709,16.3681 175.1259,15.0851 C175.6819,13.8041 176.4479,12.6931 177.4259,11.7551 C178.4039,10.8171 179.5599,10.0831 180.8949,9.5541 C182.2289,9.0261 183.6629,8.7621 185.1969,8.7621" id="Fill-32" fill="#009FFF"></path>
                <path d="M199.7076,11.418 C199.7076,10.678 199.9186,10.143 200.3416,9.812 C200.7646,9.482 201.3586,9.317 202.1256,9.317 C202.6016,9.317 203.0376,9.376 203.4346,9.495 C203.8306,9.614 204.0946,9.7 204.2276,9.753 L204.2276,20.18 C204.2276,21.978 204.6496,23.345 205.4956,24.283 C206.3416,25.222 207.6366,25.691 209.3816,25.691 C211.1256,25.691 212.4206,25.222 213.2666,24.283 C214.1126,23.345 214.5356,21.978 214.5356,20.18 L214.5356,11.418 C214.5356,10.678 214.7466,10.143 215.1696,9.812 C215.5926,9.482 216.1736,9.317 216.9146,9.317 C217.4156,9.317 217.8656,9.376 218.2626,9.495 C218.6586,9.614 218.9226,9.7 219.0556,9.753 L219.0556,21.171 C219.0556,22.519 218.8236,23.728 218.3616,24.799 C217.8986,25.869 217.2376,26.775 216.3796,27.515 C215.5196,28.255 214.4956,28.817 213.3066,29.2 C212.1166,29.583 210.8086,29.775 209.3816,29.775 C207.9546,29.775 206.6456,29.583 205.4566,29.2 C204.2666,28.817 203.2496,28.255 202.4036,27.515 C201.5576,26.775 200.8966,25.869 200.4216,24.799 C199.9456,23.728 199.7076,22.519 199.7076,21.171 L199.7076,11.418 Z" id="Fill-34" fill="#009FFF"></path>
                <g id="Group-38" transform="translate(222.702700, 0.000000)">
                    <mask id="mask-4" fill="white">
                        <use xlink:href="#path-3"></use>
                    </mask>
                    <g id="Clip-37"></g>
                    <path d="M16.929,19.2681 C16.929,18.3701 16.777,17.5241 16.473,16.7311 C16.169,15.9381 15.753,15.2511 15.224,14.6691 C14.695,14.0881 14.055,13.6321 13.301,13.3011 C12.548,12.9711 11.722,12.8061 10.823,12.8061 C9.898,12.8061 9.065,12.9711 8.326,13.3011 C7.585,13.6321 6.944,14.0811 6.402,14.6491 C5.861,15.2181 5.444,15.8981 5.154,16.6911 C4.863,17.4841 4.718,18.3431 4.718,19.2681 C4.718,20.1931 4.863,21.0461 5.154,21.8251 C5.444,22.6051 5.861,23.2791 6.402,23.8471 C6.944,24.4161 7.585,24.8651 8.326,25.1951 C9.065,25.5261 9.898,25.6911 10.823,25.6911 C11.722,25.6911 12.548,25.5321 13.301,25.2151 C14.055,24.8981 14.695,24.4621 15.224,23.9071 C15.753,23.3521 16.169,22.6781 16.473,21.8851 C16.777,21.0921 16.929,20.2201 16.929,19.2681 L16.929,19.2681 Z M16.929,2.1011 C16.929,1.3871 17.133,0.8591 17.544,0.5151 C17.953,0.1721 18.541,-0.0009 19.308,-0.0009 C19.784,-0.0009 20.22,0.0591 20.616,0.1781 C21.013,0.2971 21.277,0.3831 21.409,0.4361 L21.409,18.3161 C21.409,20.2461 21.138,21.9241 20.597,23.3521 C20.054,24.7791 19.308,25.9681 18.356,26.9201 C17.405,27.8711 16.281,28.5851 14.986,29.0611 C13.691,29.5371 12.277,29.7741 10.744,29.7741 C9.184,29.7741 7.751,29.5101 6.442,28.9821 C5.134,28.4531 4.004,27.7261 3.052,26.8011 C2.101,25.8761 1.354,24.7661 0.812,23.4701 C0.27,22.1761 0,20.7751 0,19.2681 C0,17.7351 0.257,16.3281 0.773,15.0461 C1.288,13.7641 2.002,12.6541 2.914,11.7151 C3.826,10.7771 4.896,10.0501 6.125,9.5351 C7.354,9.0191 8.696,8.7621 10.149,8.7621 C11.682,8.7621 13.03,9.0591 14.193,9.6531 C15.356,10.2481 16.268,10.9691 16.929,11.8141 L16.929,2.1011 Z" id="Fill-36" fill="#009FFF" mask="url(#mask-4)"></path>
                </g>
                <path d="M103.7124,42.8618 L102.5054,39.3488 L101.2224,42.8618 L103.7124,42.8618 Z M101.9414,38.1688 L103.1594,38.1688 L106.0454,46.1208 L104.8654,46.1208 L104.0594,43.7388 L100.9134,43.7388 L100.0524,46.1208 L98.9474,46.1208 L101.9414,38.1688 Z" id="Fill-39" fill="#989898"></path>
                <path d="M116.6284,39.2617 C116.3924,39.1497 116.0674,39.0947 115.6554,39.0947 L113.5264,39.0947 L113.5264,41.8497 L115.6554,41.8497 C116.1364,41.8497 116.5254,41.7467 116.8244,41.5407 C117.1234,41.3357 117.2744,40.9727 117.2744,40.4527 C117.2744,39.8677 117.0584,39.4707 116.6284,39.2617 L116.6284,39.2617 Z M112.4494,38.1687 L116.0084,38.1687 C116.7124,38.1687 117.2794,38.3677 117.7124,38.7667 C118.1454,39.1657 118.3614,39.7257 118.3614,40.4477 C118.3614,41.0687 118.1684,41.6087 117.7824,42.0687 C117.3974,42.5297 116.8064,42.7597 116.0104,42.7597 L113.5264,42.7597 L113.5264,46.1207 L112.4494,46.1207 L112.4494,38.1687 Z" id="Fill-41" fill="#989898"></path>
                <mask id="mask-6" fill="white">
                    <use xlink:href="#path-5"></use>
                </mask>
                <g id="Clip-44"></g>
                <polygon id="Fill-43" fill="#989898" mask="url(#mask-6)" points="125.308 46.121 126.397 46.121 126.397 38.168 125.308 38.168"></polygon>
                <path d="M144.8853,45.2007 C145.2413,45.2007 145.5343,45.1627 145.7643,45.0867 C146.1733,44.9467 146.5093,44.6757 146.7703,44.2747 C146.9783,43.9537 147.1283,43.5427 147.2203,43.0407 C147.2733,42.7417 147.2993,42.4637 147.2993,42.2067 C147.2993,41.2217 147.1083,40.4567 146.7253,39.9117 C146.3423,39.3667 145.7253,39.0947 144.8753,39.0947 L143.0063,39.0947 L143.0063,45.2007 L144.8853,45.2007 Z M141.9183,38.1687 L145.0973,38.1687 C146.1763,38.1687 147.0133,38.5557 147.6083,39.3317 C148.1383,40.0327 148.4043,40.9297 148.4043,42.0227 C148.4043,42.8677 148.2473,43.6307 147.9343,44.3127 C147.3813,45.5187 146.4323,46.1207 145.0863,46.1207 L141.9183,46.1207 L141.9183,38.1687 Z" id="Fill-45" fill="#989898" mask="url(#mask-6)"></path>
                <path d="M160.7993,44.3745 C161.2233,43.6935 161.4353,42.9105 161.4353,42.0255 C161.4353,41.0895 161.1913,40.3365 160.7013,39.7665 C160.2123,39.1955 159.5443,38.9105 158.6953,38.9105 C157.8723,38.9105 157.2013,39.1925 156.6823,39.7575 C156.1623,40.3235 155.9023,41.1565 155.9023,42.2585 C155.9023,43.1395 156.1253,43.8835 156.5703,44.4885 C157.0173,45.0935 157.7393,45.3955 158.7383,45.3955 C159.6883,45.3955 160.3743,45.0555 160.7993,44.3745 M161.7493,39.3055 C162.2763,40.0085 162.5393,40.9095 162.5393,42.0065 C162.5393,43.1945 162.2373,44.1815 161.6353,44.9675 C160.9283,45.8925 159.9193,46.3535 158.6093,46.3535 C157.3853,46.3535 156.4243,45.9495 155.7243,45.1415 C155.0993,44.3615 154.7863,43.3765 154.7863,42.1855 C154.7863,41.1095 155.0543,40.1895 155.5883,39.4245 C156.2743,38.4425 157.2883,37.9515 158.6313,37.9515 C160.0343,37.9515 161.0743,38.4025 161.7493,39.3055" id="Fill-46" fill="#989898" mask="url(#mask-6)"></path>
                <path d="M174.7691,38.7476 C175.3181,39.2786 175.6231,39.8806 175.6841,40.5556 L174.6331,40.5556 C174.5161,40.0436 174.2841,39.6376 173.9341,39.3376 C173.5851,39.0386 173.0951,38.8886 172.4641,38.8886 C171.6951,38.8886 171.0741,39.1636 170.6011,39.7146 C170.1271,40.2656 169.8911,41.1096 169.8911,42.2476 C169.8911,43.1796 170.1051,43.9356 170.5321,44.5156 C170.9591,45.0956 171.5961,45.3846 172.4441,45.3846 C173.2241,45.3846 173.8181,45.0806 174.2251,44.4696 C174.4421,44.1486 174.6031,43.7266 174.7091,43.2036 L175.7591,43.2036 C175.6661,44.0406 175.3601,44.7426 174.8391,45.3096 C174.2141,45.9916 173.3731,46.3316 172.3131,46.3316 C171.4001,46.3316 170.6321,46.0526 170.0121,45.4926 C169.1951,44.7526 168.7871,43.6096 168.7871,42.0636 C168.7871,40.8896 169.0931,39.9276 169.7071,39.1756 C170.3711,38.3596 171.2861,37.9516 172.4521,37.9516 C173.4471,37.9516 174.2191,38.2166 174.7691,38.7476" id="Fill-47" fill="#989898" mask="url(#mask-6)"></path>
                <path d="M183.1763,43.5552 C183.2003,44.0062 183.3033,44.3722 183.4853,44.6542 C183.8283,45.1812 184.4353,45.4442 185.3043,45.4442 C185.6943,45.4442 186.0483,45.3872 186.3683,45.2712 C186.9873,45.0472 187.2963,44.6472 187.2963,44.0692 C187.2963,43.6362 187.1653,43.3272 186.9033,43.1432 C186.6373,42.9632 186.2213,42.8062 185.6553,42.6722 L184.6123,42.4292 C183.9293,42.2702 183.4473,42.0952 183.1633,41.9042 C182.6743,41.5722 182.4293,41.0762 182.4293,40.4152 C182.4293,39.7002 182.6703,39.1142 183.1523,38.6552 C183.6323,38.1972 184.3143,37.9682 185.1963,37.9682 C186.0063,37.9682 186.6963,38.1692 187.2633,38.5722 C187.8303,38.9742 188.1133,39.6172 188.1133,40.5012 L187.1023,40.5012 C187.0503,40.0762 186.9393,39.7492 186.7703,39.5212 C186.4543,39.1072 185.9203,38.8992 185.1653,38.8992 C184.5573,38.8992 184.1183,39.0332 183.8523,39.3002 C183.5863,39.5672 183.4523,39.8772 183.4523,40.2312 C183.4523,40.6202 183.6103,40.9062 183.9253,41.0862 C184.1313,41.2012 184.5983,41.3462 185.3253,41.5192 L186.4053,41.7742 C186.9273,41.8962 187.3293,42.0642 187.6133,42.2772 C188.1023,42.6492 188.3473,43.1882 188.3473,43.8962 C188.3473,44.7772 188.0343,45.4062 187.4093,45.7852 C186.7843,46.1642 186.0593,46.3542 185.2323,46.3542 C184.2673,46.3542 183.5123,46.1012 182.9673,45.5962 C182.4213,45.0942 182.1543,44.4142 182.1643,43.5552 L183.1763,43.5552 Z" id="Fill-48" fill="#989898" mask="url(#mask-6)"></path>
            </g>
        </g>
    </g>
</svg>