<?xml version="1.0" encoding="UTF-8"?>
<svg width="380px" height="292px" viewBox="0 0 380 292" version="1.1" xmlns="http://www.w3.org/2000/svg" xmlns:xlink="http://www.w3.org/1999/xlink">
    <title>logobc_v_fordarkbg1</title>
    <defs>
        <polygon id="path-1" points="0 0 380.000137 0 380.000137 208.0398 0 208.0398"></polygon>
    </defs>
    <g id="Page-1" stroke="none" stroke-width="1" fill="none" fill-rule="evenodd">
        <g id="Group-5" transform="translate(-0.001199, 0.000000)">
            <path d="M20.0951985,283.494 C21.7941985,283.494 23.3571985,283.182 24.7811985,282.557 C26.2061985,281.932 27.4301985,281.083 28.4551985,280.007 C29.4791985,278.932 30.2671985,277.658 30.8171985,276.183 C31.3671985,274.709 31.6421985,273.097 31.6421985,271.347 C31.6421985,269.597 31.3671985,267.972 30.8171985,266.473 C30.2671985,264.973 29.4791985,263.687 28.4551985,262.611 C27.4301985,261.537 26.2061985,260.687 24.7811985,260.062 C23.3571985,259.437 21.7941985,259.125 20.0951985,259.125 C18.3451985,259.125 16.7581985,259.437 15.3341985,260.062 C13.9091985,260.687 12.6971985,261.55 11.6971985,262.649 C10.6971985,263.749 9.90919853,265.048 9.33519853,266.548 C8.76019853,268.047 8.47319853,269.648 8.47319853,271.347 C8.47319853,273.147 8.76019853,274.796 9.33519853,276.295 C9.90919853,277.795 10.7101985,279.07 11.7351985,280.12 C12.7581985,281.169 13.9841985,281.994 15.4091985,282.594 C16.8331985,283.194 18.3951985,283.494 20.0951985,283.494 L20.0951985,283.494 Z M0.000198532768,238.88 C0.000198532768,237.53 0.399198533,236.531 1.20019853,235.881 C1.99919853,235.232 3.12319853,234.906 4.57419853,234.906 C5.47419853,234.906 6.29819853,235.018 7.04819853,235.243 C7.79819853,235.468 8.29719853,235.631 8.54819853,235.73 L8.54819853,257.25 C9.79719853,255.651 11.5211985,254.289 13.7221985,253.163 C15.9211985,252.039 18.4451985,251.477 21.2951985,251.477 C24.0431985,251.477 26.5811985,251.964 28.9051985,252.939 C31.2301985,253.913 33.2541985,255.289 34.9791985,257.063 C36.7031985,258.838 38.0531985,260.937 39.0281985,263.361 C40.0031985,265.787 40.4901985,268.449 40.4901985,271.347 C40.4901985,274.196 39.9901985,276.846 38.9901985,279.294 C37.9901985,281.745 36.5911985,283.844 34.7911985,285.593 C32.9921985,287.343 30.8551985,288.718 28.3811985,289.717 C25.9061985,290.716 23.1941985,291.217 20.2451985,291.217 C17.2951985,291.217 14.5841985,290.767 12.1101985,289.867 C9.63519853,288.967 7.49819853,287.618 5.69919853,285.818 C3.89919853,284.018 2.49919853,281.769 1.50019853,279.07 C0.499198533,276.371 0.000198532768,273.197 0.000198532768,269.547 L0.000198532768,238.88 Z" id="Fill-27" fill="#FFFFFF"></path>
            <path d="M47.3882985,265.948 C47.3882985,261.349 48.8002985,257.788 51.6242985,255.263 C54.4482985,252.739 58.3602985,251.477 63.3592985,251.477 C66.5082985,251.477 69.0692985,251.915 71.0452985,252.789 C73.0192985,253.664 74.0062985,255.001 74.0062985,256.8 C74.0062985,257.651 73.7692985,258.476 73.2942985,259.274 C72.8182985,260.075 72.4322985,260.575 72.1322985,260.774 C71.2812985,260.375 70.2322985,260 68.9832985,259.65 C67.7322985,259.3 66.3082985,259.125 64.7092985,259.125 C58.8602985,259.125 55.9362985,262.225 55.9362985,268.423 L55.9362985,290.167 L47.3882985,290.167 L47.3882985,265.948 Z" id="Fill-29" fill="#FFFFFF"></path>
            <path d="M102.873799,273.3715 C102.373799,273.2715 101.435799,273.1215 100.061799,272.9205 C98.6867985,272.7215 96.6247985,272.6215 93.8767985,272.6215 C90.4757985,272.6215 88.0017985,273.1345 86.4527985,274.1585 C84.9027985,275.1835 84.1287985,276.7965 84.1287985,278.9955 C84.1287985,279.8945 84.2907985,280.7195 84.6157985,281.4695 C84.9407985,282.2185 85.5027985,282.8565 86.3027985,283.3815 C87.1017985,283.9065 88.1897985,284.3065 89.5647985,284.5805 C90.9387985,284.8555 92.6507985,284.9935 94.7007985,284.9935 C96.9997985,284.9935 98.8247985,284.9065 100.174799,284.7305 C101.524799,284.5565 102.423799,284.4195 102.873799,284.3185 L102.873799,273.3715 Z M111.346799,290.0175 C110.846799,290.1185 110.058799,290.2285 108.984799,290.3545 C107.908799,290.4785 106.647799,290.6045 105.197799,290.7295 C103.747799,290.8535 102.123799,290.9665 100.324799,291.0665 C98.5247985,291.1655 96.6507985,291.2165 94.7007985,291.2165 C90.8017985,291.2165 87.6157985,290.8795 85.1407985,290.2045 C82.6667985,289.5295 80.7167985,288.6305 79.2917985,287.5055 C77.8677985,286.3805 76.8927985,285.0805 76.3677985,283.6065 C75.8427985,282.1315 75.5807985,280.6195 75.5807985,279.0695 C75.5807985,277.0205 75.8917985,275.2205 76.5177985,273.6705 C77.1427985,272.1225 78.1677985,270.8215 79.5917985,269.7725 C81.0167985,268.7225 82.8787985,267.9355 85.1777985,267.4105 C87.4767985,266.8855 90.2767985,266.6225 93.5757985,266.6225 C95.4757985,266.6225 97.2747985,266.6865 98.9747985,266.8105 C100.673799,266.9355 101.948799,267.0485 102.798799,267.1475 C102.798799,265.3985 102.510799,263.9495 101.936799,262.7985 C101.361799,261.6495 100.573799,260.7495 99.5747985,260.0995 C98.5747985,259.4505 97.3747985,259.0005 95.9757985,258.7505 C94.5757985,258.5005 93.0257985,258.3745 91.3267985,258.3745 C88.4777985,258.3745 86.1907985,258.7005 84.4657985,259.3495 C82.7417985,260.0005 81.6037985,260.5495 81.0547985,260.9995 C80.7547985,260.7495 80.3417985,260.2755 79.8167985,259.5745 C79.2917985,258.8755 79.0297985,258.0255 79.0297985,257.0255 C79.0297985,256.3255 79.2167985,255.6385 79.5917985,254.9635 C79.9667985,254.2885 80.6287985,253.6885 81.5787985,253.1635 C82.5277985,252.6395 83.8027985,252.2265 85.4037985,251.9265 C87.0027985,251.6265 89.0267985,251.4765 91.4767985,251.4765 C94.4257985,251.4765 97.1117985,251.7645 99.5377985,252.3395 C101.960799,252.9145 104.047799,253.8275 105.797799,255.0755 C107.546799,256.3255 108.909799,257.9755 109.884799,260.0245 C110.858799,262.0755 111.346799,264.5495 111.346799,267.4475 L111.346799,290.0175 Z" id="Fill-31" fill="#FFFFFF"></path>
            <path d="M120.118499,256.5002 C120.118499,255.1012 120.517499,254.0892 121.318499,253.4632 C122.117499,252.8392 123.241499,252.5262 124.692499,252.5262 C125.591499,252.5262 126.416499,252.6392 127.166499,252.8642 C127.916499,253.0892 128.415499,253.2522 128.666499,253.3512 L128.666499,290.1672 L120.118499,290.1672 L120.118499,256.5002 Z M124.392499,235.6562 C125.841499,235.6562 127.066499,236.1562 128.066499,237.1552 C129.065499,238.1552 129.566499,239.3792 129.566499,240.8292 C129.566499,242.2802 129.065499,243.5042 128.066499,244.5032 C127.066499,245.5042 125.841499,246.0032 124.392499,246.0032 C122.942499,246.0032 121.717499,245.5042 120.718499,244.5032 C119.717499,243.5042 119.218499,242.2802 119.218499,240.8292 C119.218499,239.3792 119.717499,238.1552 120.718499,237.1552 C121.717499,236.1562 122.942499,235.6562 124.392499,235.6562 L124.392499,235.6562 Z" id="Fill-33" fill="#FFFFFF"></path>
            <path d="M137.438899,267.4479 C137.438899,264.9489 137.900899,262.7119 138.825899,260.7369 C139.749899,258.7629 141.024899,257.0889 142.649899,255.7139 C144.273899,254.3389 146.198899,253.2889 148.423899,252.5639 C150.646899,251.8399 153.083899,251.4769 155.734899,251.4769 C158.382899,251.4769 160.832899,251.8399 163.081899,252.5639 C165.331899,253.2889 167.268899,254.3389 168.893899,255.7139 C170.516899,257.0889 171.779899,258.7629 172.679899,260.7369 C173.579899,262.7119 174.029899,264.9489 174.029899,267.4479 L174.029899,290.1669 L165.481899,290.1669 L165.481899,269.6219 C165.481899,266.2229 164.656899,263.6359 163.007899,261.8609 C161.357899,260.0879 158.932899,259.1999 155.734899,259.1999 C152.483899,259.1999 150.047899,260.0879 148.423899,261.8609 C146.798899,263.6359 145.986899,266.2229 145.986899,269.6219 L145.986899,290.1669 L137.438899,290.1669 L137.438899,267.4479 Z" id="Fill-35" fill="#FFFFFF"></path>
            <path d="M226.665799,286.7179 C226.114799,287.1179 225.353799,287.5929 224.378799,288.1429 C223.403799,288.6939 222.178799,289.2179 220.704799,289.7169 C219.229799,290.2159 217.492799,290.6419 215.493799,290.9919 C213.493799,291.3409 211.219799,291.5169 208.670799,291.5169 C204.970799,291.5169 201.471799,290.9289 198.172799,289.7549 C194.873799,288.5809 191.960799,286.8679 189.437799,284.6189 C186.912799,282.3689 184.912799,279.5699 183.438799,276.2199 C181.963799,272.8719 181.226799,269.0219 181.226799,264.6729 C181.226799,260.3749 181.939799,256.5259 183.363799,253.1269 C184.788799,249.7269 186.737799,246.8649 189.212799,244.5409 C191.686799,242.2169 194.573799,240.4419 197.872799,239.2179 C201.171799,237.9929 204.695799,237.3799 208.444799,237.3799 C212.044799,237.3799 214.993799,237.6799 217.292799,238.2799 C219.591799,238.8799 221.403799,239.6179 222.728799,240.4919 C224.052799,241.3669 224.978799,242.2669 225.503799,243.1909 C226.027799,244.1169 226.290799,244.8789 226.290799,245.4779 C226.290799,246.1289 226.152799,246.7529 225.877799,247.3529 C225.602799,247.9519 225.278799,248.4909 224.903799,248.9649 C224.528799,249.4399 224.140799,249.8529 223.741799,250.2019 C223.340799,250.5519 222.991799,250.8019 222.691799,250.9519 C222.191799,250.4029 221.503799,249.8019 220.629799,249.1519 C219.754799,248.5029 218.717799,247.9039 217.517799,247.3529 C216.318799,246.8029 214.968799,246.3399 213.468799,245.9659 C211.969799,245.5909 210.343799,245.4029 208.594799,245.4029 C206.045799,245.4029 203.670799,245.8419 201.471799,246.7159 C199.271799,247.5909 197.372799,248.8649 195.773799,250.5399 C194.172799,252.2139 192.910799,254.2389 191.986799,256.6129 C191.061799,258.9879 190.599799,261.6739 190.599799,264.6729 C190.599799,267.7229 191.086799,270.4089 192.061799,272.7339 C193.036799,275.0579 194.373799,277.0079 196.073799,278.5819 C197.771799,280.1569 199.771799,281.3449 202.071799,282.1439 C204.370799,282.9439 206.844799,283.3439 209.494799,283.3439 C212.643799,283.3439 215.355799,282.9439 217.629799,282.1439 C219.904799,281.3449 221.566799,280.5949 222.616799,279.8949 L226.590799,286.7179 L226.665799,286.7179 Z" id="Fill-37" fill="#009FFF"></path>
            <path d="M232.138499,238.8798 C232.138499,237.5308 232.537499,236.5308 233.338499,235.8808 C234.137499,235.2318 235.261499,234.9058 236.712499,234.9058 C237.611499,234.9058 238.436499,235.0178 239.186499,235.2428 C239.936499,235.4678 240.435499,235.6308 240.686499,235.7308 L240.686499,290.1668 L232.138499,290.1668 L232.138499,238.8798 Z" id="Fill-39" fill="#009FFF"></path>
            <path d="M268.579099,283.6436 C270.278099,283.6436 271.852099,283.3316 273.303099,282.7066 C274.752099,282.0816 275.989099,281.2066 277.014099,280.0816 C278.038099,278.9576 278.839099,277.6576 279.414099,276.1836 C279.988099,274.7096 280.276099,273.0976 280.276099,271.3466 C280.276099,269.5976 279.988099,267.9606 279.414099,266.4356 C278.839099,264.9116 278.038099,263.5996 277.014099,262.4986 C275.989099,261.3996 274.752099,260.5376 273.303099,259.9126 C271.852099,259.2876 270.278099,258.9746 268.579099,258.9746 C266.828099,258.9746 265.242099,259.2876 263.818099,259.9126 C262.393099,260.5376 261.168099,261.3996 260.143099,262.4986 C259.118099,263.5996 258.318099,264.9116 257.744099,266.4356 C257.169099,267.9606 256.882099,269.5976 256.882099,271.3466 C256.882099,273.0976 257.169099,274.7096 257.744099,276.1836 C258.318099,277.6576 259.118099,278.9576 260.143099,280.0816 C261.168099,281.2066 262.393099,282.0816 263.818099,282.7066 C265.242099,283.3316 266.828099,283.6436 268.579099,283.6436 M268.579099,251.4766 C271.477099,251.4766 274.190099,251.9766 276.714099,252.9766 C279.238099,253.9766 281.425099,255.3636 283.275099,257.1376 C285.124099,258.9126 286.574099,261.0126 287.624099,263.4366 C288.674099,265.8616 289.199099,268.4976 289.199099,271.3466 C289.199099,274.1466 288.674099,276.7586 287.624099,279.1826 C286.574099,281.6076 285.124099,283.7066 283.275099,285.4806 C281.425099,287.2556 279.238099,288.6556 276.714099,289.6796 C274.190099,290.7036 271.477099,291.2166 268.579099,291.2166 C265.679099,291.2166 262.967099,290.7036 260.444099,289.6796 C257.919099,288.6556 255.731099,287.2556 253.883099,285.4806 C252.033099,283.7066 250.584099,281.6076 249.534099,279.1826 C248.484099,276.7586 247.959099,274.1466 247.959099,271.3466 C247.959099,268.4976 248.484099,265.8616 249.534099,263.4366 C250.584099,261.0126 252.033099,258.9126 253.883099,257.1376 C255.731099,255.3636 257.919099,253.9766 260.444099,252.9766 C262.967099,251.9766 265.679099,251.4766 268.579099,251.4766" id="Fill-41" fill="#009FFF"></path>
            <path d="M296.021599,256.5002 C296.021599,255.1012 296.421599,254.0892 297.221599,253.4632 C298.020599,252.8392 299.144599,252.5262 300.595599,252.5262 C301.495599,252.5262 302.320599,252.6392 303.069599,252.8642 C303.819599,253.0892 304.318599,253.2522 304.569599,253.3512 L304.569599,273.0712 C304.569599,276.4712 305.368599,279.0572 306.968599,280.8322 C308.567599,282.6072 311.017599,283.4942 314.317599,283.4942 C317.616599,283.4942 320.064599,282.6072 321.665599,280.8322 C323.264599,279.0572 324.063599,276.4712 324.063599,273.0712 L324.063599,256.5002 C324.063599,255.1012 324.463599,254.0892 325.264599,253.4632 C326.063599,252.8392 327.163599,252.5262 328.563599,252.5262 C329.511599,252.5262 330.362599,252.6392 331.113599,252.8642 C331.862599,253.0892 332.361599,253.2522 332.611599,253.3512 L332.611599,274.9462 C332.611599,277.4952 332.173599,279.7822 331.300599,281.8072 C330.424599,283.8312 329.175599,285.5442 327.551599,286.9432 C325.926599,288.3432 323.990599,289.4062 321.739599,290.1292 C319.490599,290.8532 317.016599,291.2172 314.317599,291.2172 C311.617599,291.2172 309.143599,290.8532 306.893599,290.1292 C304.644599,289.4062 302.719599,288.3432 301.120599,286.9432 C299.519599,285.5442 298.271599,283.8312 297.371599,281.8072 C296.471599,279.7822 296.021599,277.4952 296.021599,274.9462 L296.021599,256.5002 Z" id="Fill-43" fill="#009FFF"></path>
            <path d="M371.527399,271.3466 C371.527399,269.6476 371.239399,268.0476 370.665399,266.5486 C370.090399,265.0486 369.302399,263.7486 368.303399,262.6486 C367.302399,261.5496 366.091399,260.6876 364.666399,260.0616 C363.241399,259.4376 361.679399,259.1246 359.980399,259.1246 C358.229399,259.1246 356.655399,259.4376 355.256399,260.0616 C353.856399,260.6876 352.643399,261.5366 351.619399,262.6116 C350.594399,263.6866 349.807399,264.9736 349.258399,266.4726 C348.707399,267.9726 348.433399,269.5976 348.433399,271.3466 C348.433399,273.0976 348.707399,274.7096 349.258399,276.1836 C349.807399,277.6586 350.594399,278.9326 351.619399,280.0066 C352.643399,281.0826 353.856399,281.9326 355.256399,282.5566 C356.655399,283.1816 358.229399,283.4936 359.980399,283.4936 C361.679399,283.4936 363.241399,283.1936 364.666399,282.5936 C366.091399,281.9936 367.302399,281.1686 368.303399,280.1196 C369.302399,279.0696 370.090399,277.7956 370.665399,276.2956 C371.239399,274.7966 371.527399,273.1466 371.527399,271.3466 L371.527399,271.3466 Z M371.527399,238.8796 C371.527399,237.5306 371.913399,236.5316 372.689399,235.8806 C373.463399,235.2316 374.575399,234.9056 376.026399,234.9056 C376.926399,234.9056 377.751399,235.0176 378.500399,235.2426 C379.250399,235.4676 379.749399,235.6306 380.000399,235.7306 L380.000399,269.5476 C380.000399,273.1966 379.487399,276.3706 378.463399,279.0696 C377.437399,281.7696 376.026399,284.0186 374.226399,285.8186 C372.427399,287.6176 370.301399,288.9666 367.853399,289.8676 C365.403399,290.7666 362.728399,291.2166 359.830399,291.2166 C356.880399,291.2166 354.169399,290.7166 351.694399,289.7166 C349.220399,288.7176 347.083399,287.3436 345.283399,285.5936 C343.484399,283.8446 342.071399,281.7446 341.047399,279.2946 C340.022399,276.8466 339.510399,274.1956 339.510399,271.3466 C339.510399,268.4486 339.997399,265.7866 340.972399,263.3616 C341.947399,260.9376 343.297399,258.8376 345.021399,257.0626 C346.746399,255.2886 348.770399,253.9136 351.095399,252.9386 C353.419399,251.9636 355.956399,251.4766 358.705399,251.4766 C361.604399,251.4766 364.153399,252.0386 366.353399,253.1636 C368.552399,254.2886 370.277399,255.6506 371.527399,257.2506 L371.527399,238.8796 Z" id="Fill-45" fill="#009FFF"></path>
            <path d="M234.077199,113.1757 C234.150199,113.2277 234.216199,113.2967 234.297199,113.3287 C236.284199,114.1027 236.996199,115.4397 236.460199,117.4677 C234.229199,125.9037 231.989199,134.3367 229.752199,142.7707 C229.067199,145.3547 228.377199,147.9367 227.694199,150.5207 C227.632199,150.7527 227.608199,150.9947 227.542199,151.3767 L228.675199,151.3767 C237.261199,151.3767 245.847199,151.3927 254.434199,151.3607 C255.901199,151.3547 257.036199,151.7877 257.691199,153.1357 C258.362199,154.5177 258.011199,155.7147 257.047199,156.8717 C243.281199,173.3967 229.533199,189.9367 215.777199,206.4707 C214.672199,207.7997 213.306199,208.0937 211.831199,207.3537 C210.416199,206.6437 209.804199,205.2617 210.234199,203.6357 C213.143199,192.6147 216.062199,181.5957 218.976199,170.5767 C219.053199,170.2867 219.111199,169.9917 219.213199,169.5447 C218.758199,169.5447 218.404199,169.5447 218.051199,169.5447 C209.465199,169.5447 200.879199,169.5277 192.292199,169.5597 C190.825199,169.5657 189.692199,169.1277 189.035199,167.7817 C188.361199,166.3987 188.720199,165.2067 189.684199,164.0497 C203.470199,147.5007 217.234199,130.9337 231.024199,114.3887 C231.438199,113.8917 232.069199,113.5757 232.599199,113.1757 L234.077199,113.1757 Z" id="Fill-47" fill="#FFDC00"></path>
            <g id="Group-51" transform="translate(0.000000, -0.000000)">
                <mask id="mask-2" fill="white">
                    <use xlink:href="#path-1"></use>
                </mask>
                <g id="Clip-50"></g>
                <path d="M356.731899,161.2948 C356.731899,161.3988 357.432899,171.7608 351.295899,178.3708 C347.330899,182.6428 340.850899,184.8078 332.034899,184.8078 L271.957899,184.8078 C265.541899,184.8078 260.341899,190.0088 260.341899,196.4238 C260.341899,202.8378 265.541899,208.0398 271.957899,208.0398 L332.034899,208.0398 C347.728899,208.0398 360.019899,203.2878 368.563899,193.9138 C380.524899,180.7948 380.175899,163.7618 379.920899,159.8748 C379.752899,123.9278 359.382899,106.0678 343.411899,99.2938 C341.920899,73.3008 332.699899,49.7448 317.020899,32.3508 C297.946899,11.1868 270.632899,-0.0002 238.036899,-0.0002 C210.066899,-0.0002 183.219899,13.1958 164.380899,36.2018 C163.378899,37.4258 162.421899,38.6688 161.486899,39.9208 C138.393899,30.2038 117.317899,28.8648 98.7428985,35.9998 C72.9888985,45.8918 61.1838985,68.9338 58.4558985,75.0028 C45.0078985,75.2088 30.2628985,82.4098 18.9988985,94.2788 C6.77889853,107.1548 0.0348985328,123.7018 0.00389853277,140.8878 C-0.0511014672,144.0628 0.234898533,165.8148 17.5108985,183.8238 C32.7398985,199.7008 55.9868985,207.7508 86.6038985,207.7508 L174.768899,207.7508 C181.184899,207.7508 186.384899,202.5488 186.384899,196.1348 C186.384899,189.7198 181.184899,184.5188 174.768899,184.5188 L160.626899,184.5188 C143.758899,183.8678 131.882899,179.3378 125.334899,171.0508 C116.646899,160.0588 119.425899,144.9298 119.508899,144.4998 C120.803899,138.2498 116.809899,132.1188 110.558899,130.7848 C104.278899,129.4448 98.1128985,133.4468 96.7738985,139.7208 C96.5548985,140.7498 91.6368985,164.8848 106.401899,184.5188 L86.6038985,184.5188 C62.7648985,184.5188 45.2498985,178.9678 34.5428985,168.0188 C23.0318985,156.2458 23.2158985,141.9858 23.2258985,141.4908 C23.2328985,141.3298 23.2358985,141.1688 23.2358985,141.0088 C23.2358985,116.4758 44.5018985,98.4258 58.8388985,98.2288 C64.7288985,98.0958 72.3898985,100.0758 75.5738985,109.7198 C77.5848985,115.8098 84.1488985,119.1188 90.2448985,117.1088 C96.3368985,115.0978 99.6448985,108.5298 97.6338985,102.4368 C94.5908985,93.2178 88.8488985,85.9398 81.3428985,81.1938 C84.7638985,75.0368 92.9778985,63.0098 107.294899,57.6028 C119.346899,53.0478 133.596899,53.9498 149.744899,60.2268 C142.913899,76.1878 140.826899,93.2148 144.082899,109.3958 C145.348899,115.6858 151.468899,119.7578 157.761899,118.4928 C164.051899,117.2268 168.123899,111.1028 166.858899,104.8128 C163.321899,87.2368 169.114899,67.0898 182.354899,50.9208 C196.763899,33.3238 217.059899,23.2318 238.036899,23.2318 C291.654899,23.2318 314.768899,58.2228 319.484899,92.9198 C305.080899,91.8278 284.002899,93.8578 269.782899,111.1668 C265.709899,116.1238 266.427899,123.4438 271.384899,127.5158 C273.546899,129.2918 276.156899,130.1558 278.751899,130.1558 C282.107899,130.1558 285.437899,128.7088 287.733899,125.9128 C297.955899,113.4718 316.967899,115.5118 324.971899,117.0498 C324.971899,117.0498 356.731899,123.8608 356.731899,161.2948" id="Fill-49" fill="#009FFF" mask="url(#mask-2)"></path>
            </g>
        </g>
    </g>
</svg>